<svg version="1.1" id="Layer_1" xmlns="http://www.w3.org/2000/svg" xmlns:xlink="http://www.w3.org/1999/xlink" x="0px" y="0px"
	 width="493.74px" height="247.76px" viewBox="0 0 493.74 247.76" enable-background="new 0 0 493.74 247.76" xml:space="preserve">
<g>
	<path fill="#222222" d="M138.62,173.1c-9.18-41.51,5.15-137.24,9.88-165.85c1.05-6.33,0.45-8.22-5.77-6.81
		c-5.1,1.15-11.63,2.64-15.11,3.51c-6.24,1.55-6.71,4.35-9.81,11.5c-11.78,34.06-23.97,63.24-35.57,87.77
		c-31.99-2.6-63.04-7.83-76.78-10.32c-4.7-0.85-6.44,1.03-4.91,4.51c3.96,9.04,11.9,25.27,17.82,25.27c4.8,0,28.11,0.9,54.2,0.26
		c-9.62,18.88-18.59,34.35-26.24,46.56c0,0-36.59,0-37.21,0c-0.62,0-1.52,0.52-1.88,1.52c-1.14,3.21-3.52,9.04-3.52,21.35
		c0,8.99,8.75,17.14,18.67,17.14c6.06,0,10.45-5.26,19.71-18.68c2.06-2.99,12.91-19.69,19.5-30.94
		c5.88-10.06,12.72-22.48,20.11-37.24c9.19-0.36,18.5-0.93,27.26-1.83c-0.88,25.95-0.34,50.73,3.34,66.27
		c7.49,32.04,37.51,56.1,53.1,59.78c12.32,2.91,13.46-1.55,4.79-10.53C158.54,224.29,145.1,202.41,138.62,173.1z M90.78,103.85
		c7.51-16.08,15.38-34.35,23.26-54.79c-1.58,15.81-3.29,35.57-4.37,55.63C103.47,104.55,97.14,104.26,90.78,103.85z"/>
	<path fill="#222222" d="M337.2,164.09c1.78-24.99,9.19-62.37,15.34-90.29c17.89-10.48,26.82-13.9,26.82-13.9
		c0.2-0.1,0.66-0.08,0.73,0.3c0.62,2.98,2.91,14.75,3.04,15.36c0.29,1.41,0.83,1.71,1.77,1.6c2.42-0.29,8.1-0.93,8.66-1.01
		c0.76-0.11,1.39-0.41,1.85-0.92c3.49-3.85,17.48-15.58,13.38-22.59c-4.38-7.5-21.2-7.07-53.87,10.52
		c1.67-7.34,3.15-13.63,4.27-18.28c1.43-5.96,0.58-7.96-6.04-4.41c-7.14,3.83-16.6,8.89-18.08,9.69c-2.43,1.3-4.26,3.93-5.24,8.87
		c-1.01,5.08-2.57,12.7-4.34,21.99c-17.25,11.67-32.44,24.94-44.65,37.9c-1.3-3.98-1.33-7.99,0.08-13.45
		c1.71-6.28,5.92-8.65,8.94-8.12c3.89,0.54,5.9,0.63,3.86-5.2c-1.7-4.88-5.17-8.22-12.29-6.57c-17.86,4.13-21.27,19.14-27.38,39.06
		c-10.58,34.52-21.07,53.37-28.83,53.37c-5.92,0-3.99-6.48-2-14.71c1.46-6.04,9.86-43.78,13.98-61.56c1.29-5.56,1.15-6.99-5.02-5.99
		c-4.23,0.69-12.88,1.99-16.26,2.48c-0.63,0.09-1.06,0.82-1.25,1.8c-0.88,4.56-4.95,21.46-10.16,34.86
		c-6.33,16.26-18.45,33.6-24.32,33.6c-5.06,0-2.49-7.18-0.86-13.6s9.57-40.78,10.56-45.21c0.99-4.43,3.31-8.69-3.23-8.05
		c-10.28,1.01-29.37,2.02-32.94,2.21c-0.38,0.02-0.58,0.21-0.65,0.8s-0.7,8.61-0.74,9.1c-0.04,0.49,0.2,0.87,0.75,0.77
		c0.56-0.1,12.99-2.3,12.99-2.3s-5.52,22.97-9.19,36.74c-3.67,13.77-10.37,41.81,9.5,41.81c19.86,0,35.34-37.83,35.34-37.83
		c-0.45,1.66-1.14,3.83-1.85,6.28c-3.52,12.21-7,31.55,16.01,31.55c23.02,0,34.2-33.71,44.08-59.51c0,2.19,1.61,4.91,3.87,8.11
		c-9.4,13.06-14.71,24.57-14.71,32.12c0,13.81,10.38,19.29,23.38,19.29s26.37-7.96,28.07-22.42s-2.21-22.07-10.71-34.14
		c-2.16-3.07-3.99-5.68-5.47-8.07c10.88-11.82,24.28-23.83,38.85-33.76c0.05-0.03,0.1-0.06,0.15-0.1
		c-4.28,23.56-9.07,54.05-10.75,81.81c-1.94,32.18,16.71,47.66,28.41,53.05c12.27,5.65,15.17,2.04,9.74-6.62
		C345.12,211.46,335.35,190.2,337.2,164.09z M278.53,169.87c0,8.13-3.54,12.44-10.54,12.44s-10.87-4.1-10.87-11.57
		c0-5.66,4.19-14.65,11.38-25C273.38,152.47,278.53,160.61,278.53,169.87z"/>
	<path fill="#222222" d="M485.21,155.3c5.02-24.33,19.24-59.78-6.09-59.78c-22,0-33.1,27.97-33.1,27.97
		c1.77-6.52,2.68-11.08,4.82-19.88c1.15-4.76,0.18-8.16-3.19-8.16c-2.48,0-13.6,1.45-18.65,2.13c-1.54,0.21-3.12,1.39-4.15,3.16
		c-4.31,7.47-16.01,27.77-20.86,36.38c-6.75,12.7-17.2,31.38-22.29,31.38c-5.06,0-2.66-6.38-1-13.02
		c0.89-3.57,8.43-34.93,12.42-51.55c1.46-6.06-1.65-9.36-7.17-8.27c-10.44,2.05-25.81,4.19-28.58,5.21c-0.38,0.16-0.87,0.5-1,1.18
		c-0.15,0.75-1.86,8.66-1.99,9.37c-0.09,0.49,0.19,0.87,0.75,0.77c0.56-0.1,12.92-2.34,12.92-2.34s-5.99,25.35-9.65,39.12
		c-3.67,13.77-9.25,41.81,13.04,41.81c13.08,0,24.35-19.33,36.49-41.3c7.89-14.29,15.11-29.08,15.11-29.08s-11.5,47.9-15.84,65.74
		c-1.17,4.79,0.08,4.89,5.18,4.49c4.86-0.38,10.25-0.99,16.16-1.67c1.54-0.18,1.92-0.97,2.16-1.94c1.16-4.78,3.54-14.85,7.99-33.24
		s17.12-40.6,25.19-36.05s-2.89,20.57-5.38,45.75s14.07,33.65,24.78,37.19c5.02,1.66,6.47-0.19,4.23-5.32
		C484.28,187.93,481.17,174.88,485.21,155.3z"/>
</g>
</svg>
